<svg id="Слой_1" data-name="Слой 1" xmlns="http://www.w3.org/2000/svg" viewBox="0 0 512 512"><defs><style>.cls-1{fill:#fff;}</style></defs><rect width="512" height="512"/><circle class="cls-1" cx="256.39" cy="255.61" r="90"/><polygon class="cls-1" points="256.39 91.47 166.39 255.61 346.39 255.61 256.39 91.47"/><polygon class="cls-1" points="256.39 419.74 346.39 255.61 166.39 255.61 256.39 419.74"/><polygon class="cls-1" points="421.03 256.11 256.89 166.11 256.89 346.11 421.03 256.11"/><polygon class="cls-1" points="92.26 255.61 256.39 345.61 256.39 165.61 92.26 255.61"/><polygon class="cls-1" points="139.37 138.41 191.8 318.11 319.08 190.83 139.37 138.41"/><polygon class="cls-1" points="373.14 372.18 320.72 192.48 193.44 319.76 373.14 372.18"/><polygon class="cls-1" points="377.14 132.81 201.68 198.04 337.8 315.82 377.14 132.81"/><polygon class="cls-1" points="148.04 378.72 323.5 313.48 187.38 195.71 148.04 378.72"/></svg>